<svg width="193" height="24" viewBox="0 0 193 24" fill="none" xmlns="http://www.w3.org/2000/svg">
<path d="M15.3333 12.2682C15.3418 10.4434 13.8952 8.90118 11.9666 8.67917C10.038 8.45717 8.23763 9.62558 7.77668 11.3983C7.31573 13.1711 8.34005 14.9874 10.1605 15.6252L8.68626 23H14.3401L12.8917 15.6107C14.3615 15.0758 15.331 13.7486 15.3333 12.2682Z" fill="#1A3967"/>
<path d="M23 12.2198C22.8705 5.98609 17.7599 1 11.5 1C5.24011 1 0.129511 5.98609 6.01153e-09 12.2198C-0.000131476 16.2604 2.15656 19.9963 5.6626 22.0288L6.4012 17.1537C5.26681 15.9169 4.638 14.3021 4.63841 12.6269C4.73801 8.92366 7.78069 5.97315 11.5 5.97315C15.2193 5.97315 18.262 8.92366 18.3616 12.6269C18.3622 14.3155 17.724 15.9423 16.5742 17.1831L17.3079 22.0435C20.8328 20.0188 23.0034 16.2728 23 12.2198Z" fill="#ED7F22"/>
<path d="M44.792 9.12384H41.5198C41.4265 8.59411 41.2545 8.12484 41.0036 7.71603C40.7528 7.30146 40.4408 6.95022 40.0675 6.66233C39.6942 6.37443 39.2684 6.15851 38.7901 6.01456C38.3177 5.86485 37.8073 5.79 37.2591 5.79C36.285 5.79 35.4218 6.03183 34.6694 6.5155C33.9169 6.99341 33.3278 7.69587 32.9021 8.6229C32.4763 9.54417 32.2634 10.6698 32.2634 11.9999C32.2634 13.353 32.4763 14.4931 32.9021 15.4201C33.3337 16.3414 33.9228 17.0381 34.6694 17.5103C35.4218 17.9766 36.2821 18.2098 37.2503 18.2098C37.7869 18.2098 38.2885 18.1407 38.7551 18.0026C39.2276 17.8586 39.6505 17.6484 40.0238 17.3721C40.4029 17.0957 40.7208 16.756 40.9774 16.3529C41.2399 15.9499 41.4207 15.4892 41.5198 14.971L44.792 14.9883C44.6695 15.8289 44.4041 16.6178 43.9958 17.3548C43.5933 18.0918 43.0655 18.7425 42.4122 19.3067C41.759 19.8652 40.9949 20.3028 40.12 20.6195C39.2451 20.9305 38.274 21.0859 37.2066 21.0859C35.6318 21.0859 34.2261 20.7261 32.9895 20.0063C31.753 19.2866 30.779 18.2473 30.0674 16.8884C29.3558 15.5295 29 13.9 29 11.9999C29 10.094 29.3587 8.46456 30.0761 7.11144C30.7935 5.75257 31.7705 4.71327 33.007 3.99353C34.2436 3.27379 35.6434 2.91392 37.2066 2.91392C38.204 2.91392 39.1314 3.05211 39.9888 3.32849C40.8462 3.60487 41.6102 4.0108 42.281 4.54629C42.9518 5.07602 43.5029 5.72666 43.9346 6.49823C44.372 7.26403 44.6578 8.13923 44.792 9.12384Z" fill="#1A3967"/>
<path d="M48.9857 3.39761V21.0859H45.8185V3.39761H48.9857Z" fill="#1A3967"/>
<path d="M56.4515 21.0859C55.1391 21.0859 54.0018 20.8009 53.0394 20.2309C52.077 19.6609 51.3304 18.8634 50.7996 17.8385C50.2747 16.8136 50.0122 15.6159 50.0122 14.2455C50.0122 12.8751 50.2747 11.6746 50.7996 10.644C51.3304 9.61328 52.077 8.81293 53.0394 8.2429C54.0018 7.67286 55.1391 7.38785 56.4515 7.38785C57.7638 7.38785 58.9012 7.67286 59.8636 8.2429C60.826 8.81293 61.5696 9.61328 62.0946 10.644C62.6254 11.6746 62.8907 12.8751 62.8907 14.2455C62.8907 15.6159 62.6254 16.8136 62.0946 17.8385C61.5696 18.8634 60.826 19.6609 59.8636 20.2309C58.9012 20.8009 57.7638 21.0859 56.4515 21.0859ZM56.469 18.5812C57.1806 18.5812 57.7755 18.3884 58.2538 18.0026C58.7321 17.611 59.0878 17.0871 59.3212 16.4307C59.5603 15.7743 59.6799 15.043 59.6799 14.2369C59.6799 13.425 59.5603 12.6909 59.3212 12.0345C59.0878 11.3723 58.7321 10.8455 58.2538 10.4539C57.7755 10.0624 57.1806 9.86663 56.469 9.86663C55.7399 9.86663 55.1333 10.0624 54.6492 10.4539C54.1709 10.8455 53.8122 11.3723 53.5731 12.0345C53.3398 12.6909 53.2231 13.425 53.2231 14.2369C53.2231 15.043 53.3398 15.7743 53.5731 16.4307C53.8122 17.0871 54.1709 17.611 54.6492 18.0026C55.1333 18.3884 55.7399 18.5812 56.469 18.5812Z" fill="#1A3967"/>
<path d="M72.4826 15.3337V7.64689H75.6497V20.9131H72.5788V18.5553H72.4389C72.1356 19.298 71.6368 19.9055 70.9428 20.3777C70.2545 20.8498 69.4059 21.0859 68.3968 21.0859C67.5161 21.0859 66.7374 20.893 66.0608 20.5072C65.3901 20.1157 64.8651 19.5485 64.486 18.8057C64.1069 18.0572 63.9173 17.1532 63.9173 16.0938V7.64689H67.0845V15.6101C67.0845 16.4508 67.3178 17.1187 67.7844 17.6138C68.251 18.109 68.8634 18.3566 69.6217 18.3566C70.0883 18.3566 70.5403 18.2443 70.9778 18.0198C71.4152 17.7952 71.7739 17.4613 72.0539 17.0179C72.3397 16.5688 72.4826 16.0074 72.4826 15.3337Z" fill="#1A3967"/>
<path d="M82.2144 21.086C81.1587 21.086 80.2138 20.8182 79.3797 20.2827C78.5456 19.7472 77.8866 18.9699 77.4024 17.9508C76.9183 16.9316 76.6763 15.6937 76.6763 14.2369C76.6763 12.7629 76.9212 11.5192 77.4112 10.5058C77.907 9.48662 78.5748 8.71794 79.4147 8.19973C80.2546 7.67575 81.1908 7.41377 82.2231 7.41377C83.0106 7.41377 83.658 7.5462 84.1654 7.81107C84.6729 8.07017 85.0753 8.38398 85.3728 8.75249C85.6703 9.11524 85.9006 9.45783 86.0639 9.78028H86.1952V3.16442H89.3711V20.8528H86.2564V18.7626H86.0639C85.9006 19.0851 85.6644 19.4277 85.3553 19.7904C85.0462 20.1474 84.6379 20.4526 84.1304 20.7059C83.623 20.9593 82.9843 21.086 82.2144 21.086ZM83.098 18.5208C83.7688 18.5208 84.3404 18.3423 84.8129 17.9853C85.2853 17.6226 85.644 17.1187 85.889 16.4739C86.1339 15.829 86.2564 15.0776 86.2564 14.2196C86.2564 13.3617 86.1339 12.6161 85.889 11.9827C85.6498 11.3493 85.294 10.857 84.8216 10.5058C84.355 10.1545 83.7805 9.97892 83.098 9.97892C82.3923 9.97892 81.8032 10.1603 81.3307 10.523C80.8583 10.8858 80.5025 11.3867 80.2634 12.0259C80.0242 12.665 79.9046 13.3963 79.9046 14.2196C79.9046 15.0488 80.0242 15.7887 80.2634 16.4393C80.5083 17.0842 80.867 17.5938 81.3395 17.968C81.8178 18.3365 82.4039 18.5208 83.098 18.5208Z" fill="#1A3967"/>
<path d="M106.66 9.12396H103.388C103.295 8.59423 103.123 8.12496 102.872 7.71615C102.621 7.30158 102.309 6.95035 101.936 6.66245C101.562 6.37455 101.137 6.15863 100.658 6.01468C100.186 5.86498 99.6755 5.79013 99.1272 5.79013C98.1532 5.79013 97.2899 6.03196 96.5375 6.51562C95.7851 6.99353 95.196 7.696 94.7702 8.62302C94.3444 9.54429 94.1315 10.67 94.1315 12C94.1315 13.3532 94.3444 14.4932 94.7702 15.4203C95.2018 16.3415 95.7909 17.0382 96.5375 17.5104C97.2899 17.9768 98.1502 18.21 99.1185 18.21C99.6551 18.21 100.157 18.1409 100.623 18.0027C101.096 17.8587 101.519 17.6486 101.892 17.3722C102.271 17.0958 102.589 16.7561 102.846 16.353C103.108 15.95 103.289 15.4893 103.388 14.9711L106.66 14.9884C106.538 15.8291 106.272 16.6179 105.864 17.3549C105.462 18.0919 104.934 18.7426 104.28 19.3069C103.627 19.8654 102.863 20.303 101.988 20.6197C101.113 20.9306 100.142 21.086 99.0747 21.086C97.4999 21.086 96.0942 20.7262 94.8577 20.0064C93.6212 19.2867 92.6471 18.2474 91.9355 16.8885C91.2239 15.5297 90.8681 13.9002 90.8681 12C90.8681 10.0942 91.2269 8.46468 91.9443 7.11157C92.6617 5.7527 93.6387 4.71339 94.8752 3.99365C96.1117 3.27391 97.5116 2.91404 99.0747 2.91404C100.072 2.91404 101 3.05223 101.857 3.32861C102.714 3.60499 103.478 4.01093 104.149 4.54641C104.82 5.07614 105.371 5.72679 105.803 6.49835C106.24 7.26415 106.526 8.13936 106.66 9.12396Z" fill="#1A3967"/>
<path d="M114.126 21.0861C112.814 21.0861 111.676 20.8011 110.714 20.231C109.751 19.661 109.005 18.8635 108.474 17.8386C107.949 16.8137 107.687 15.616 107.687 14.2457C107.687 12.8753 107.949 11.6747 108.474 10.6441C109.005 9.61341 109.751 8.81306 110.714 8.24302C111.676 7.67299 112.814 7.38797 114.126 7.38797C115.438 7.38797 116.576 7.67299 117.538 8.24302C118.5 8.81306 119.244 9.61341 119.769 10.6441C120.3 11.6747 120.565 12.8753 120.565 14.2457C120.565 15.616 120.3 16.8137 119.769 17.8386C119.244 18.8635 118.5 19.661 117.538 20.231C116.576 20.8011 115.438 21.0861 114.126 21.0861ZM114.143 18.5814C114.855 18.5814 115.45 18.3885 115.928 18.0027C116.407 17.6112 116.762 17.0872 116.996 16.4308C117.235 15.7744 117.354 15.0431 117.354 14.237C117.354 13.4252 117.235 12.691 116.996 12.0346C116.762 11.3725 116.407 10.8456 115.928 10.4541C115.45 10.0625 114.855 9.86676 114.143 9.86676C113.414 9.86676 112.808 10.0625 112.324 10.4541C111.845 10.8456 111.487 11.3725 111.248 12.0346C111.014 12.691 110.898 13.4252 110.898 14.237C110.898 15.0431 111.014 15.7744 111.248 16.4308C111.487 17.0872 111.845 17.6112 112.324 18.0027C112.808 18.3885 113.414 18.5814 114.143 18.5814Z" fill="#1A3967"/>
<path d="M124.759 13.3128V21.086H121.592V7.81975H124.619V10.074H124.776C125.086 9.3312 125.578 8.74101 126.255 8.30341C126.937 7.86581 127.78 7.64701 128.783 7.64701C129.711 7.64701 130.519 7.84278 131.207 8.23432C131.901 8.62586 132.438 9.19301 132.817 9.93578C133.202 10.6786 133.391 11.5797 133.385 12.6391V21.086H130.218V13.1228C130.218 12.2361 129.985 11.5422 129.518 11.0413C129.058 10.5404 128.419 10.2899 127.602 10.2899C127.048 10.2899 126.555 10.4108 126.124 10.6526C125.698 10.8887 125.363 11.2313 125.118 11.6804C124.878 12.1296 124.759 12.6737 124.759 13.3128Z" fill="#1A3967"/>
<path d="M137.579 13.3128V21.086H134.412V7.81975H137.439V10.074H137.597C137.906 9.3312 138.399 8.74101 139.075 8.30341C139.758 7.86581 140.601 7.64701 141.604 7.64701C142.531 7.64701 143.339 7.84278 144.027 8.23432C144.721 8.62586 145.258 9.19301 145.637 9.93578C146.022 10.6786 146.212 11.5797 146.206 12.6391V21.086H143.039V13.1228C143.039 12.2361 142.805 11.5422 142.339 11.0413C141.878 10.5404 141.239 10.2899 140.423 10.2899C139.869 10.2899 139.376 10.4108 138.944 10.6526C138.518 10.8887 138.183 11.2313 137.938 11.6804C137.699 12.1296 137.579 12.6737 137.579 13.3128Z" fill="#1A3967"/>
<path d="M163.199 7.81983L165.912 12.7169L168.667 7.81983H172.018L167.968 14.453L172.088 21.0861H168.755L165.912 16.3099L163.094 21.0861H159.735L163.829 14.453L159.84 7.81983H163.199Z" fill="#1A3967"/>
<path d="M176.585 21.086C175.734 21.086 174.967 20.9363 174.284 20.6369C173.608 20.3318 173.071 19.8826 172.675 19.2896C172.284 18.6965 172.088 17.9653 172.088 17.0958C172.088 16.3473 172.228 15.7283 172.508 15.2389C172.788 14.7495 173.17 14.3579 173.654 14.0643C174.139 13.7706 174.684 13.5489 175.291 13.3992C175.903 13.2438 176.536 13.1315 177.189 13.0624C177.976 12.9818 178.615 12.9098 179.105 12.8465C179.595 12.7774 179.951 12.6737 180.172 12.5355C180.4 12.3916 180.514 12.1699 180.514 11.8705V11.8187C180.514 11.168 180.318 10.6642 179.927 10.3072C179.537 9.95022 178.974 9.77173 178.239 9.77173C177.463 9.77173 176.848 9.93871 176.393 10.2727C175.944 10.6066 175.64 11.001 175.483 11.4559L172.526 11.0413C172.759 10.2352 173.144 9.56156 173.681 9.02032C174.217 8.47332 174.873 8.0645 175.649 7.79388C176.425 7.5175 177.282 7.37931 178.221 7.37931C178.869 7.37931 179.513 7.45416 180.155 7.60387C180.797 7.75358 181.383 8.00117 181.914 8.34664C182.444 8.68636 182.87 9.14987 183.191 9.73718C183.517 10.3245 183.681 11.0586 183.681 11.9396V20.8183H180.636V18.9959H180.531C180.339 19.3644 180.067 19.7099 179.718 20.0323C179.373 20.349 178.939 20.6053 178.414 20.801C177.895 20.991 177.285 21.086 176.585 21.086ZM177.408 18.7886C178.044 18.7886 178.595 18.6648 179.061 18.4172C179.528 18.1639 179.887 17.8299 180.137 17.4154C180.394 17.0008 180.522 16.5488 180.522 16.0594V14.4961C180.423 14.5767 180.254 14.6516 180.015 14.7207C179.782 14.7898 179.519 14.8502 179.228 14.902C178.936 14.9539 178.647 14.9999 178.361 15.0402C178.076 15.0805 177.828 15.1151 177.618 15.1439C177.145 15.2072 176.722 15.3108 176.349 15.4548C175.976 15.5987 175.681 15.8003 175.465 16.0594C175.25 16.3127 175.142 16.6409 175.142 17.044C175.142 17.6198 175.355 18.0545 175.78 18.3482C176.206 18.6418 176.749 18.7886 177.408 18.7886Z" fill="#1A3967"/>
<path d="M183.681 3.83309V3.16158H187.255V3.83309H185.87V7.58366H185.065V3.83309H183.681Z" fill="#1A3967"/>
<path d="M187.636 3.16158H188.629L189.959 6.36586H190.011L191.341 3.16158H192.334V7.58366H191.555V4.54564H191.514L190.276 7.57071H189.694L188.456 4.53916H188.414V7.58366H187.636V3.16158Z" fill="#1A3967"/>
<path fill-rule="evenodd" clip-rule="evenodd" d="M153.759 21.0861C152.412 21.0861 151.248 20.8097 150.268 20.2569C149.294 19.6984 148.545 18.9096 148.02 17.8904C147.495 16.8655 147.232 15.6592 147.232 14.2716C147.232 12.9069 147.495 11.7093 148.02 10.6786C148.551 9.6422 149.291 8.83609 150.242 8.26029C151.193 7.67875 152.31 7.38797 153.593 7.38797C154.421 7.38797 155.203 7.5204 155.938 7.78527C156.678 8.04437 157.332 8.44743 157.897 8.99443C158.469 9.54143 158.918 10.2381 159.245 11.0846C159.571 11.9252 159.735 12.9271 159.735 14.0902V15.0489H150.374C150.383 15.7873 150.526 16.4235 150.802 16.9576C151.088 17.5046 151.487 17.925 152.001 18.2186C152.514 18.5065 153.115 18.6505 153.803 18.6505C154.264 18.6505 154.681 18.5871 155.054 18.4605C155.427 18.328 155.751 18.1351 156.025 17.8818C156.299 17.6284 156.506 17.3146 156.646 16.9404L159.604 17.2686C159.417 18.0401 159.061 18.7138 158.536 19.2896C158.017 19.8596 157.352 20.303 156.541 20.6197C155.731 20.9306 154.803 21.0861 153.759 21.0861ZM156.305 11.3437C156.562 11.8101 156.693 12.3427 156.699 12.9415H150.38C150.41 12.4217 150.545 11.941 150.785 11.4991C151.059 10.9982 151.441 10.5951 151.931 10.29C152.421 9.97904 152.989 9.82357 153.637 9.82357C154.243 9.82357 154.774 9.95888 155.229 10.2295C155.69 10.5001 156.049 10.8715 156.305 11.3437Z" fill="#1A3967"/>
</svg>